<svg xmlns="http://www.w3.org/2000/svg" width="424" height="157" viewBox="0 0 424 157" fill="none">
  <path fill-rule="evenodd" clip-rule="evenodd" d="M50.8179 15.0444C49.9979 15.0823 48.8847 16.5654 48.0136 16.6289C45.9766 16.7685 44.3611 15.3607 42.1967 16.2677C40.2885 17.0596 38.3048 19.2585 36.3579 19.8202C34.9106 20.2415 34.3731 20.8551 33.3743 21.4045C30.4419 23.0017 28.3018 22.4123 26.5633 26.5297C24.2854 29.3167 21.6606 31.0291 19.6516 33.6116C19.3317 34.0207 18.7935 33.8542 18.6783 34.0076C13.5597 40.5022 18.605 37.8189 12.9723 42.5994C12.2186 44.9267 11.4787 48.2901 10.2259 51.2183C9.67624 52.5354 8.69057 53.4173 8.23061 54.76C6.54408 59.6832 6.60109 65.8224 4.18324 69.6197C3.91535 70.8474 4.21031 71.1545 4.19826 71.9731C2.82373 81.7054 2.45985 89.8652 0.967975 97.4232C1.67672 101.798 0.682271 106.977 1.13457 111.121C1.40603 113.692 2.3179 116.084 2.78144 118.553C3.30936 121.367 3.99038 123.503 4.36461 126.368C3.9574 129.31 5.05965 129.784 4.95946 132.239C6.15257 133.967 6.89795 136.423 8.11662 138.086C8.11754 139.058 8.38711 139.621 8.26012 140.823C8.83774 141.987 9.1332 142.831 9.32599 143.484C9.62163 144.52 9.66032 144.789 9.98129 145.518C10.0969 145.786 11.2524 148.499 12.3926 148.397C13.1228 148.333 13.2755 147.182 13.8648 147.144C14.9153 147.081 14.3679 150.802 17.7253 151.674C19.2375 152.058 21.159 151.791 22.7601 151.408C22.8242 151.446 22.9011 151.459 22.9651 151.459C23.3238 151.434 23.4769 150.769 23.9128 151.012C24.017 152.867 25.1861 156.282 26.6464 156.091C27.146 156.027 28.3479 153.457 29.5005 152.946C31.2037 152.18 32.2702 155.48 33.7942 154.88C34.4986 154.599 35.5086 152.297 36.2767 151.735C38.274 150.278 41.8235 150.996 43.2463 151.7C44.246 152.199 44.5037 153.722 45.2468 153.709C45.3493 153.709 45.4261 153.671 45.5158 153.645C46.7709 153.173 47.4489 152.15 48.1148 151.767C48.8062 151.37 50.3947 151.141 54.1875 151.783C57.4935 152.424 59.2485 152.182 60.2603 151.799C60.9519 151.543 61.4896 151.134 63.8587 150.01C64.2813 149.805 64.6399 149.639 64.8832 149.537C67.2298 151.751 70.3136 147.647 72.8121 147.93C73.3118 147.994 73.8122 148.762 74.3502 148.698C75.2342 148.609 76.5653 147.267 77.7563 146.73C79.7925 145.798 81.4581 145.875 83.1738 144.751C85.0863 148.499 87.5033 143.883 89.5276 143.935C90.2835 143.949 90.874 145.164 91.7323 145.1C92.4626 145.05 93.3198 143.874 94.1014 143.912C94.8829 143.938 95.5374 145.141 96.3189 145.065C96.8954 145.014 97.4455 144.221 97.9068 144.272C98.509 144.349 98.7661 145.258 99.4449 145.053C100.149 144.824 101.045 143.289 101.749 143.085C104.349 142.306 106.849 143.753 109.613 140.697C113.574 142.887 117.849 138.732 122.579 141.024C123.949 140.155 124.961 139.529 126.178 140.22C126.511 139.913 126.638 138.98 127.087 139.044C129.573 140.043 132.799 136.579 135.324 137.833C135.477 137.373 135.656 136.938 135.861 136.657C139.36 138.296 144.087 138.26 147.339 135.819C149.365 137.636 152.335 135.233 155.154 134.992C156.486 134.877 157.64 135.875 158.946 135.364C161.495 134.368 164.545 135.201 166.953 134.537C167.67 134.346 168.502 133.182 169.206 132.965C170.487 132.557 171.654 133.606 173.05 132.942C178.428 130.412 184.054 131.579 188.512 131.3C189.883 131.211 191.239 129.869 192.84 129.32C195.491 128.413 197.851 130.346 200.489 129.669C201.155 129.503 201.885 128.685 202.499 128.481C204.088 127.97 205.446 128.636 207.086 128.458C211.07 128.038 215.347 125.623 218.82 127.223C223.93 124.361 230.759 124.761 236.344 123.997C237.879 121.785 238.816 123.55 240.122 123.193C244.196 122.108 249.574 119.374 253.496 120.77C271.427 115.919 289.351 116.44 307.155 111.104C308.284 112.639 310.512 111.476 311.856 110.287C311.972 111.285 312.766 111.183 313.33 111.452C315.839 108.716 318.275 110.649 321.08 109.845C322.115 107.262 323.501 109.079 324.793 107.084C325.037 108.453 324.038 108.324 324.679 109.041C327.071 104.323 332.748 106.103 335.591 104.685C335.411 104.685 335.462 103.994 335.705 103.905C336.193 105.018 336.819 102.703 337.536 102.729C342.468 101.913 346.55 97.145 350.93 95.2288C351.366 95.843 352.483 97.7236 353.199 95.9974C352.481 95.7668 351.52 95.9581 351.839 94.0526C353.005 94.6032 354.759 93.6449 355.796 92.0723C357.358 91.8045 358.013 92.7641 359.587 91.2685C359.92 91.2815 359.534 89.2988 360.239 89.312C362.264 90.1828 363.569 88.4441 365.376 89.2891C366.182 87.4478 368.526 86.7712 369.09 87.7052C369.832 86.887 368.602 86.2341 369.204 85.7484C371.035 85.0715 372.764 84.2155 374.213 85.3289C374.724 84.4595 375.146 83.2831 375.85 82.9765C376.311 82.8232 375.48 84.7541 376.223 84.1405C376.991 83.0794 375.991 82.3754 376.322 81.0071C377.283 80.3169 377.243 79.3705 377.832 78.2581C378.909 79.2562 380.047 77.0058 381.238 76.2902C382.48 75.5363 383.659 76.1252 384.837 75.4863C385.849 74.9369 386.437 73.5559 387.513 73.5181C388.384 73.4802 388.923 74.849 389.91 74.6705C390.46 74.3126 389.767 73.2379 390.51 73.1104C393.969 72.4344 397.427 71.7456 400.269 69.1507C396.006 72.4482 393.646 69.3646 389.908 72.3299C389.637 70.6031 388.243 73.5185 388.062 71.1651C387.691 72.1881 388.383 72.8535 387.64 72.738C387.409 72.61 387.371 72.1751 386.961 72.3412C387.728 70.2185 387.01 70.2564 386.932 68.8239C384.05 69.1166 381.668 70.228 379.182 70.4314C378.658 70.9555 379.337 71.6081 378.761 71.9915C377.775 72.4003 377.083 72.1441 375.892 72.7958C375.775 71.2609 375.121 70.5443 375.798 68.4855C379.129 68.4233 384.097 65.075 388.119 64.5016C389.336 64.336 390.375 65.8329 391.411 63.3139C389.516 64.1826 388.45 61.5345 386.938 61.3802C384.977 61.1874 382.482 63.7824 380.598 63.3721C380.06 63.2567 379.931 62.5532 379.431 62.6041C379.034 62.6295 378.215 63.8313 377.792 63.7927C377.331 63.7413 377.407 62.8972 376.997 63.0121C376.139 63.2419 375.308 64.5716 374.385 64.5839C372.835 64.5958 371.514 63.2266 369.734 63.8268C369.515 63.1488 369.885 61.4096 370.321 61.0773C372.332 61.0528 372.691 60.9379 374.779 60.6576C374.574 60.4912 374.484 60.1586 374.585 59.4808C375.213 59.5579 375.368 60.0312 375.93 59.085C374.38 59.2633 374.928 56.2196 375.644 54.7875C379.386 55.0836 384.265 53.4107 387.264 54.3332C387.725 53.4765 388.095 52.364 388.71 51.9806C392.386 50.7803 396.204 51.5369 400.123 50.3623C396.111 48.301 391.411 49.9612 386.249 51.2119C386.108 50.8537 386.402 49.7668 385.877 50.0351C383.584 51.2745 381.124 51.1325 379.408 51.6304C378.894 49.993 378.418 48.2917 377.968 46.5521C372.499 48.3014 369.598 41.6235 364.55 41.9278C364.741 40.7385 364.395 40.4058 364.356 39.5872C364.893 38.5899 365.34 37.3111 365.916 36.4417C366.749 36.3143 367.683 35.6241 368.299 36.4302C373.023 32.6724 378.726 34.7858 384.284 32.4354C385.192 30.4406 384.896 28.9824 384.677 27.3452C382.28 26.3719 379.579 29.2482 377.22 26.996C376.882 22.4426 378.34 19.1564 380.453 18.761C383.963 18.1234 389.857 18.2032 392.01 18.7031C402.512 15.3449 412.416 15.849 423.085 13.0664C417.435 12.539 411.762 15.3242 406.828 13.9275C406.727 14.7844 406.496 15.168 406.099 15.1038C401.077 14.9477 395.44 15.354 390.765 17.1421C389.277 14.4299 385.219 17.9705 383.717 15.2199C384.789 10.744 386.619 8.62189 388.732 7.36959C386.708 7.75222 385.041 6.39562 383.401 6.22848C382.056 6.08709 379.508 7.56937 378.943 6.6482C378.802 6.41791 379.25 5.49727 378.942 5.47153C379.493 5.51019 377.905 5.77794 377.777 5.8674C376.957 6.42973 377.047 6.74952 376.189 6.65954C375.074 6.54384 375.112 6.47991 374.535 5.49479C370.704 5.03233 366.708 6.64175 362.928 5.9491C362.531 5.88494 361.698 5.99961 361.647 5.96122C361.313 5.70524 361.735 4.9125 361.274 4.79714C361.005 4.73305 361.006 5.65392 360.609 5.57697C359.135 5.30761 357.444 5.02534 355.894 5.21637C352.038 5.70035 347.668 4.89229 344.517 5.27432C343.863 5.03097 344.964 3.63746 344.016 3.71369C338.775 3.08423 333.202 2.6848 327.5 2.63064C327.09 2.51531 327.665 0.776194 326.999 1.07001C326.243 0.826604 326.181 2.71947 325.489 2.64237C325.117 2.15616 324.783 1.59323 324.68 0.685092C318.286 -0.354258 311.28 1.66285 304.401 2.74636C297.983 3.75337 291.642 4.10814 285.583 4.80839C280.804 5.35584 276.053 7.29739 271.965 6.43831C266.099 8.11069 261.192 8.32553 255.85 8.87268C251.994 9.25434 247.894 8.61269 244.551 9.71085C243.975 9.9024 243.194 10.8484 242.541 10.8993C241.567 10.9755 240.759 9.69607 239.785 9.74671C237.146 9.86043 234.227 11.6623 231.613 11.7504C228.667 11.8512 225.874 11.7602 222.991 11.797C221.364 11.8217 219.623 13.1893 217.983 13.3803C216.894 13.5204 215.92 12.5223 214.805 12.6113C211.667 12.8654 208.261 14.7821 205.352 14.6143C201.47 14.3948 197.638 12.9347 193.374 15.0684C189.094 14.2988 183.713 14.5773 179.384 15.5342C176.37 12.6294 172.351 16.0677 168.558 15.5925C168.161 15.5411 167.968 14.9527 167.571 14.8118C161.996 12.852 154.89 17.4398 150.404 15.6852C148.33 17.8456 147.111 15.6835 145.509 15.3245C143.779 14.9271 141.936 16.3842 140.194 16.524C139.63 16.5748 139.219 15.82 138.656 15.7558C136.951 15.563 135.069 16.9689 133.11 17.3388C130.176 17.9 127.585 14.714 124 17.0015C121.654 15.6957 118.104 14.2485 114.942 16.2677C110.417 13.6306 104.975 17.3623 100.093 16.3494C98.4398 16.0032 97.1696 14.0201 95.1985 15.9887C94.711 15.3489 94.147 15.0544 93.5319 14.939C91.8661 14.644 90.0088 15.0523 89.2531 15.2309C81.6063 17.0942 77.5055 15.9921 72.4983 18.2789C67.0172 20.7828 65.8424 24.8877 64.9327 24.7721C64.6636 24.7336 64.6632 24.3627 64.7141 24.0046C66.6699 19.2734 66.733 18.2886 66.4255 18.2501C65.4774 18.1601 60.4891 27.008 59.0541 26.9049C58.2341 26.8406 58.9232 23.912 59.6127 21.4823C58.8069 22.9016 58.2311 23.6175 57.8979 23.6045C57.4367 23.5915 57.4354 22.1718 57.8939 19.3327C56.8678 18.066 55.6259 18.9478 54.3455 19.7401C53.0764 18.9337 52.637 14.9686 50.8179 15.0444ZM370.541 77.8961C370.439 78.3565 370.478 78.5995 370.606 78.6763C369.955 80.5817 369.465 77.8955 370.541 77.8961ZM371.028 77.1162C372.59 76.8612 374.984 74.9568 375.908 76.313C376.203 76.3003 375.944 74.1004 376.495 73.5763C377.021 74.5102 377.701 75.1884 378.828 75.1251C378.46 78.3607 376.472 76.5691 375.988 79.4465C375.155 79.2287 374.758 79.1134 374.157 80.6222C372.529 79.6494 371.865 81.6698 370.672 80.6332C371.285 78.7534 370.632 79.2263 371.028 77.1162Z" fill="url(#paint0_linear_1_545)" />
  <defs>
    <linearGradient id="paint0_linear_1_545" x1="0.87677" y1="0.227417" x2="424" y2="2.37279" gradientUnits="userSpaceOnUse">
      <stop stop-color="#DD5AFE" />
      <stop offset="1" stop-color="#6366F1" />
    </linearGradient>
  </defs>
  <text x="45%" y="50%" dominant-baseline="middle" text-anchor="middle" fill="white" font-size="72" font-family="'DroneRangerPro'" text-transform="uppercase">
    THE DJ
  </text>
</svg>